<?xml version="1.0" encoding="utf-8"?>
<!-- Generator: Adobe Illustrator 16.0.0, SVG Export Plug-In . SVG Version: 6.00 Build 0)  -->
<!DOCTYPE svg PUBLIC "-//W3C//DTD SVG 1.1//EN" "http://www.w3.org/Graphics/SVG/1.1/DTD/svg11.dtd">
<svg version="1.1" id="Capa_1" xmlns="http://www.w3.org/2000/svg" xmlns:xlink="http://www.w3.org/1999/xlink" x="0px" y="0px"
	 width="221px" height="117px" viewBox="-1.833 0 221 117" enable-background="new -1.833 0 221 117" xml:space="preserve">
<title>Logo</title>
<desc>Created with Sketch.</desc>
<g id="header-2" transform="translate(-1.000000, -13.000000)">
	<g id="Logo" transform="translate(3.000000, 15.000000)">
		<g id="Stroke-3">
			<g>
				<path id="path-1" fill="#FFFFFF" d="M113,56.5c0,31.204-25.296,56.5-56.5,56.5S0,87.704,0,56.5S25.296,0,56.5,0
					S113,25.296,113,56.5z"/>
			</g>
			<path fill="none" stroke="#FFFFFF" stroke-width="2" d="M114,56.5c0,31.756-25.744,57.5-57.5,57.5S-1,88.256-1,56.5
				C-1,24.744,24.744-1,56.5-1S114,24.744,114,56.5z"/>
		</g>
		<path id="Fill-5" fill="#80BC00" d="M108.535,78.56C111.434,72.165,113,63.905,113,55.793C113,24.979,87.704,0,56.5,0
			C25.295,0,0,24.979,0,55.793C0,66.928,3.056,77.885,8.36,86C25.8,79.498,45.803,75.602,66.262,75.004
			C80.756,74.58,95.251,75.845,108.535,78.56z"/>
		<path id="Fill-7" fill="#003B7C" d="M56.701,113c22.163,0,41.847-13.178,50.84-32.263c-36.109-3.71-65.985,7.144-86.289,19.903
			C30.777,108.37,43.579,113,56.701,113z"/>
		<path id="Fill-9" fill="#FFFFFF" d="M94.964,62.286c0,0.698-0.483,2.112-0.483,2.112H102c0,0-0.482-1.404-0.482-2.112v-7.561
			H101.5v-16c0-1.606,0.483-2.169,0.483-2.169h-8.484l-0.658,1.327l-7.463,14.957l-7.491-14.933l-0.67-1.351l-8.483,0.002
			c0,0,0.482,0.55,0.482,2.168v23.56c0,0.698-0.482,2.112-0.482,2.112h7.519c0,0-0.482-1.404-0.482-2.112V46.763l7.236,14.854h4.745
			l7.197-14.854l0.018,7.962h0V62.286z M30.68,49.067c-1.274-0.556-2.89-1.112-4.845-1.668c-1.313-0.397-2.305-0.722-2.976-0.974
			c-0.67-0.25-1.233-0.583-1.688-0.993c-0.456-0.41-0.684-0.92-0.684-1.529c0-0.635,0.261-1.118,0.785-1.449
			c0.522-0.332,1.239-0.497,2.151-0.497c1.152,0,2.579,0.278,4.281,0.834c1.702,0.556,4.079,1.567,4.536,2.747l3.042-6.4
			c-1.501-0.954-3.243-1.714-5.226-2.284C28.073,36.285,26.062,36,24.026,36c-2.252,0-4.229,0.351-5.931,1.052
			c-1.702,0.702-3.015,1.703-3.939,3c-0.925,1.297-1.387,2.807-1.387,4.528c0,1.827,0.449,3.29,1.347,4.388
			c0.898,1.099,1.977,1.921,3.237,2.462c1.26,0.544,2.854,1.08,4.784,1.609c1.287,0.344,2.285,0.642,2.995,0.893
			c0.71,0.252,1.3,0.591,1.77,1.014c0.468,0.423,0.704,0.953,0.704,1.588c0,0.769-0.315,1.351-0.945,1.748
			c-0.63,0.396-1.495,0.596-2.593,0.596c-1.501,0-3.223-0.396-5.166-1.191c-1.943-0.794-3.939-1.98-4.754-3.556L11,60.307
			c1.688,1.404,3.692,2.51,6.009,3.316c2.319,0.808,4.645,1.211,6.976,1.211c2.118,0,4.041-0.33,5.77-0.992
			c1.728-0.661,3.088-1.648,4.081-2.959c0.992-1.311,1.487-2.893,1.487-4.747c0-1.853-0.456-3.356-1.367-4.508
			C33.045,50.477,31.953,49.623,30.68,49.067z M58.36,54.938c-0.35,0.701-0.769,1.321-1.252,1.868
			c-0.215-0.337-0.438-0.673-0.694-1.003c-0.968-1.246-2.042-2.26-3.531-2.734l-3.724,3.797c0.968,0.246,1.953,1.013,2.556,1.704
			c0.205,0.236,0.377,0.465,0.534,0.689c-0.161,0.012-0.318,0.035-0.483,0.035c-1.394,0-2.681-0.389-3.86-1.169
			c-1.18-0.778-2.124-1.841-2.833-3.188c-0.711-1.346-1.066-2.84-1.066-4.485c0-1.615,0.348-3.095,1.046-4.441
			c0.696-1.346,1.641-2.401,2.834-3.167c1.192-0.765,2.485-1.148,3.879-1.148c1.394,0,2.673,0.383,3.839,1.148
			c1.166,0.765,2.084,1.821,2.755,3.167c0.668,1.346,1.003,2.826,1.003,4.441C59.364,52.098,59.029,53.593,58.36,54.938z
			 M64.447,62.684c-0.989,0.217-2.062-0.066-3.177-0.826c0.973-0.754,1.848-1.617,2.599-2.561c0.201-0.219,0.391-0.449,0.561-0.697
			c1.642-2.397,2.493-5.11,2.493-8.183c0-2.701-0.663-5.136-1.991-7.308c-1.327-2.171-3.149-3.878-5.468-5.124
			c-2.318-1.244-4.911-1.866-7.78-1.866c-2.868,0-5.461,0.622-7.779,1.866c-2.319,1.246-4.142,2.953-5.468,5.124
			c-1.327,2.172-1.99,4.607-1.99,7.308c0,2.674,0.637,5.097,1.909,7.269c1.274,2.172,3.022,3.899,5.248,5.184
			c2.225,1.285,4.731,1.965,7.518,2.045c0.011-0.005,0.022-0.009,0.033-0.014c0.179,0.006,0.349,0.02,0.534,0.02
			c1.408,0,2.749-0.152,4.023-0.452c1.226,1.384,2.621,2.384,4.199,2.976c1.656,0.621,3.334,0.723,5.034,0.303
			c1.268-0.312,2.612-0.975,3.591-1.966c0.096-0.098-2.525-4.062-2.525-4.062C65.621,62.298,65.103,62.539,64.447,62.684z"/>
		<path id="Fill-11" fill="#78777C" d="M196.123,76.729c0.746,0,1.705,0.301,2.876,0.902l1.003-1.903
			c-0.567-0.339-1.173-0.597-1.813-0.771c-0.642-0.175-1.29-0.263-1.948-0.263c-1.094,0-1.985,0.254-2.676,0.763
			c-0.691,0.509-1.037,1.212-1.037,2.108c0,0.58,0.152,1.051,0.46,1.412c0.306,0.36,0.666,0.631,1.078,0.812s0.937,0.364,1.573,0.55
			c0.534,0.143,0.927,0.273,1.178,0.395c0.252,0.12,0.377,0.289,0.377,0.508c0,0.175-0.087,0.31-0.26,0.402s-0.404,0.14-0.693,0.14
			c-0.502,0-1.035-0.096-1.598-0.288c-0.562-0.19-1.102-0.461-1.613-0.812l-0.938,1.888c0.547,0.415,1.171,0.73,1.873,0.942
			c0.703,0.214,1.438,0.32,2.208,0.32c1.138,0,2.06-0.255,2.769-0.763c0.707-0.509,1.061-1.211,1.061-2.108
			c0-0.591-0.156-1.069-0.468-1.437c-0.312-0.366-0.683-0.64-1.112-0.82c-0.429-0.18-0.967-0.363-1.613-0.549
			c-0.535-0.143-0.926-0.273-1.17-0.395c-0.246-0.12-0.369-0.279-0.369-0.476c0-0.186,0.078-0.325,0.234-0.419
			C195.66,76.775,195.865,76.729,196.123,76.729z M187.477,76.729c0.746,0,1.705,0.301,2.877,0.902l1.003-1.903
			c-0.569-0.339-1.175-0.597-1.814-0.771c-0.642-0.175-1.291-0.263-1.949-0.263c-1.093,0-1.984,0.254-2.676,0.763
			c-0.69,0.509-1.036,1.212-1.036,2.108c0,0.58,0.152,1.051,0.459,1.412c0.308,0.36,0.667,0.631,1.08,0.812
			c0.412,0.181,0.936,0.364,1.571,0.55c0.534,0.143,0.929,0.273,1.179,0.395c0.252,0.12,0.377,0.289,0.377,0.508
			c0,0.175-0.086,0.31-0.26,0.402s-0.404,0.14-0.694,0.14c-0.501,0-1.034-0.096-1.597-0.288c-0.562-0.19-1.102-0.461-1.613-0.812
			l-0.938,1.888c0.547,0.415,1.172,0.73,1.873,0.942c0.703,0.214,1.439,0.32,2.207,0.32c1.139,0,2.061-0.255,2.769-0.763
			c0.708-0.509,1.062-1.211,1.062-2.108c0-0.591-0.157-1.069-0.468-1.437c-0.312-0.366-0.684-0.64-1.113-0.82
			c-0.43-0.18-0.967-0.363-1.613-0.549c-0.535-0.143-0.926-0.273-1.171-0.395c-0.245-0.12-0.368-0.279-0.368-0.476
			c0-0.186,0.078-0.325,0.234-0.419C187.014,76.775,187.22,76.729,187.477,76.729z M176.422,78.484
			c0.101-0.525,0.31-0.941,0.627-1.248c0.318-0.306,0.711-0.459,1.18-0.459c0.502,0,0.906,0.156,1.213,0.467
			c0.306,0.312,0.459,0.726,0.459,1.24H176.422z M178.212,74.727c-0.938,0-1.763,0.188-2.476,0.565
			c-0.713,0.378-1.266,0.914-1.655,1.608c-0.391,0.695-0.585,1.496-0.585,2.404c0,0.896,0.191,1.685,0.576,2.362
			c0.385,0.679,0.939,1.204,1.664,1.575c0.725,0.373,1.572,0.559,2.543,0.559c0.836,0,1.585-0.135,2.248-0.402
			c0.664-0.268,1.229-0.659,1.697-1.174l-1.555-1.525c-0.301,0.295-0.633,0.52-0.995,0.673s-0.738,0.229-1.128,0.229
			c-0.514,0-0.949-0.134-1.305-0.402c-0.357-0.268-0.608-0.654-0.754-1.156h6.289c0.011-0.12,0.017-0.295,0.017-0.525
			c0-1.488-0.396-2.658-1.187-3.512C180.814,75.152,179.684,74.727,178.212,74.727z M170.017,76.302v-1.478h-2.977v8.878h2.977
			v-4.529c0.067-0.558,0.317-0.998,0.753-1.32c0.436-0.323,1.003-0.484,1.705-0.484c0.201,0,0.352,0.005,0.451,0.017V74.71
			c-0.635,0-1.201,0.137-1.697,0.41C170.732,75.395,170.328,75.787,170.017,76.302z M161.404,80.502
			c-0.335,0.383-0.775,0.574-1.322,0.574c-0.545,0-0.989-0.191-1.329-0.574s-0.511-0.881-0.511-1.493s0.171-1.112,0.511-1.501
			s0.784-0.582,1.329-0.582c0.547,0,0.987,0.19,1.322,0.574c0.334,0.383,0.501,0.886,0.501,1.509
			C161.905,79.621,161.738,80.119,161.404,80.502z M161.905,75.908c-0.3-0.383-0.677-0.676-1.128-0.878
			c-0.452-0.202-0.957-0.304-1.514-0.304c-0.736,0-1.395,0.175-1.974,0.525c-0.581,0.35-1.028,0.842-1.347,1.477
			c-0.317,0.635-0.477,1.367-0.477,2.198c0,0.843,0.164,1.589,0.494,2.239c0.328,0.651,0.785,1.154,1.371,1.51
			c0.585,0.355,1.251,0.533,1.998,0.533c1.115,0,1.974-0.388,2.575-1.164v0.951c0,0.525-0.194,0.941-0.585,1.247
			s-0.92,0.46-1.588,0.46c-0.492,0-0.977-0.077-1.455-0.23c-0.48-0.153-0.926-0.366-1.339-0.64l-1.037,2.019
			c0.535,0.35,1.154,0.629,1.856,0.837C158.46,86.896,159.19,87,159.949,87c0.969,0,1.825-0.167,2.566-0.501
			c0.742-0.333,1.318-0.81,1.73-1.427c0.413-0.618,0.62-1.338,0.62-2.158v-8.09h-2.961V75.908z M151.152,80.896
			c-0.357,0.404-0.83,0.606-1.422,0.606c-0.579,0-1.048-0.202-1.404-0.606c-0.357-0.405-0.535-0.941-0.535-1.608
			c0-0.656,0.178-1.187,0.535-1.592c0.356-0.405,0.825-0.606,1.404-0.606c0.58,0,1.051,0.201,1.414,0.606
			c0.361,0.405,0.543,0.936,0.543,1.592C151.688,79.955,151.51,80.491,151.152,80.896z M152.323,75.292
			c-0.747-0.377-1.612-0.565-2.593-0.565s-1.845,0.188-2.592,0.565c-0.747,0.378-1.324,0.909-1.73,1.592
			c-0.408,0.685-0.611,1.475-0.611,2.371c0,0.908,0.203,1.704,0.611,2.388c0.406,0.684,0.983,1.214,1.73,1.592
			c0.747,0.377,1.611,0.566,2.592,0.566s1.846-0.189,2.593-0.566c0.747-0.378,1.326-0.908,1.739-1.592
			c0.412-0.684,0.619-1.479,0.619-2.388c0-0.896-0.207-1.687-0.619-2.371C153.649,76.201,153.07,75.67,152.323,75.292z
			 M141.318,76.302v-1.478h-2.977v8.878h2.977v-4.529c0.067-0.558,0.318-0.998,0.754-1.32c0.434-0.323,1.002-0.484,1.705-0.484
			c0.2,0,0.352,0.005,0.451,0.017V74.71c-0.635,0-1.201,0.137-1.697,0.41C142.035,75.395,141.631,75.787,141.318,76.302z
			 M133.266,80.83c-0.361,0.405-0.834,0.607-1.412,0.607c-0.569,0-1.031-0.202-1.389-0.607c-0.356-0.404-0.535-0.936-0.535-1.592
			s0.179-1.189,0.535-1.6c0.357-0.41,0.819-0.615,1.389-0.615c0.578,0,1.051,0.205,1.412,0.615c0.363,0.41,0.544,0.943,0.544,1.6
			S133.629,80.426,133.266,80.83z M134.797,75.292c-0.637-0.377-1.372-0.565-2.208-0.565c-1.114,0-2.001,0.416-2.659,1.247v-1.149
			h-2.977v12.061h2.977v-4.332c0.323,0.405,0.717,0.715,1.18,0.928s0.979,0.32,1.547,0.32c0.824,0,1.552-0.186,2.182-0.559
			c0.63-0.371,1.115-0.896,1.455-1.575c0.34-0.678,0.511-1.466,0.511-2.362c0-0.908-0.176-1.709-0.526-2.404
			C135.926,76.206,135.432,75.67,134.797,75.292z M213.105,58.259c-0.598-0.612-1.391-0.918-2.383-0.918
			c-0.658,0-1.24,0.131-1.748,0.394c-0.508,0.262-0.923,0.65-1.246,1.164v-1.443h-2.977v8.877h2.977v-4.693
			c0.056-0.502,0.242-0.907,0.561-1.214c0.318-0.306,0.721-0.464,1.213-0.476c0.468,0,0.841,0.146,1.119,0.436
			c0.279,0.289,0.418,0.686,0.418,1.189v4.758H214v-5.595C214,59.697,213.701,58.872,213.105,58.259z M199.818,63.33
			c-0.09,0.338-0.301,0.615-0.636,0.828s-0.726,0.32-1.171,0.32c-0.379,0-0.678-0.091-0.895-0.271
			c-0.218-0.18-0.326-0.424-0.326-0.73c0-0.611,0.418-0.918,1.254-0.918h1.773V63.33z M201.691,58.186
			c-0.691-0.563-1.662-0.845-2.91-0.845c-0.725,0-1.425,0.079-2.1,0.237c-0.674,0.159-1.379,0.402-2.115,0.73l0.82,1.969
			c0.479-0.229,0.955-0.404,1.43-0.525c0.473-0.12,0.9-0.18,1.279-0.18c0.557,0,0.983,0.114,1.279,0.344
			c0.295,0.23,0.443,0.559,0.443,0.984v0.099h-2.358c-1.115,0.011-1.971,0.252-2.567,0.722c-0.597,0.471-0.895,1.127-0.895,1.97
			c0,0.831,0.275,1.501,0.828,2.011c0.551,0.508,1.307,0.762,2.266,0.762c1.215,0,2.123-0.377,2.727-1.132v1.001h2.926v-5.775
			C202.733,59.539,202.383,58.749,201.691,58.186z M183.529,66.332h2.977v-4.381c0-0.591,0.153-1.068,0.46-1.436
			c0.307-0.366,0.722-0.555,1.245-0.566c0.458,0,0.82,0.146,1.088,0.436c0.268,0.289,0.402,0.686,0.402,1.189v4.758h2.976v-5.595
			c0-1.04-0.296-1.865-0.886-2.479c-0.592-0.612-1.377-0.918-2.357-0.918c-0.736,0-1.375,0.167-1.916,0.5
			c-0.541,0.334-0.956,0.829-1.246,1.485c-0.223-0.624-0.596-1.11-1.12-1.461c-0.524-0.35-1.154-0.524-1.89-0.524
			c-0.658,0-1.235,0.134-1.73,0.401c-0.497,0.269-0.9,0.659-1.213,1.174v-1.461h-2.96v8.877h2.96v-4.381
			c0-0.591,0.155-1.068,0.468-1.436c0.312-0.366,0.73-0.555,1.255-0.566c0.457,0,0.818,0.146,1.086,0.436
			c0.268,0.289,0.402,0.686,0.402,1.189V66.332z M172.107,64.889v1.443h2.977v-8.877h-2.977v4.381c0,0.591-0.15,1.07-0.452,1.436
			c-0.3,0.367-0.714,0.556-1.237,0.566c-0.446,0-0.801-0.142-1.062-0.427c-0.262-0.284-0.393-0.678-0.393-1.181v-4.775h-2.977v5.611
			c0,1.029,0.293,1.852,0.878,2.471c0.585,0.617,1.368,0.926,2.35,0.926C170.529,66.441,171.494,65.916,172.107,64.889z
			 M157.959,61.951c0-0.591,0.158-1.068,0.477-1.436c0.317-0.366,0.749-0.555,1.297-0.566c0.479,0,0.855,0.146,1.128,0.436
			c0.273,0.289,0.409,0.686,0.409,1.189v4.758h2.977v-5.595c0-1.04-0.298-1.865-0.895-2.479c-0.596-0.612-1.396-0.918-2.398-0.918
			c-0.658,0-1.241,0.131-1.748,0.394c-0.508,0.262-0.924,0.65-1.246,1.164v-4.742h-2.978v12.175h2.978V61.951z M143.994,57.455
			v8.877h2.977v-4.529c0.067-0.557,0.318-0.998,0.754-1.32c0.434-0.322,1.002-0.483,1.705-0.483c0.2,0,0.352,0.005,0.451,0.016
			v-2.674c-0.636,0-1.201,0.136-1.697,0.409s-0.9,0.668-1.213,1.182v-1.477H143.994z M138.944,63.527
			c-0.356,0.404-0.831,0.606-1.422,0.606c-0.579,0-1.048-0.202-1.405-0.606c-0.357-0.405-0.535-0.941-0.535-1.608
			c0-0.657,0.178-1.188,0.535-1.593c0.357-0.404,0.826-0.607,1.405-0.607s1.051,0.203,1.413,0.607
			c0.362,0.405,0.543,0.936,0.543,1.593C139.479,62.586,139.301,63.122,138.944,63.527z M141.854,64.273
			c0.413-0.684,0.619-1.48,0.619-2.389c0-0.896-0.206-1.687-0.619-2.37c-0.412-0.685-0.992-1.214-1.738-1.592
			c-0.748-0.378-1.612-0.566-2.593-0.566c-0.981,0-1.845,0.188-2.593,0.566c-0.746,0.378-1.324,0.907-1.73,1.592
			c-0.407,0.684-0.61,1.474-0.61,2.37c0,0.908,0.203,1.705,0.61,2.389c0.406,0.684,0.984,1.214,1.73,1.592
			c0.748,0.377,1.611,0.565,2.593,0.565c0.98,0,1.845-0.188,2.593-0.565C140.861,65.487,141.441,64.957,141.854,64.273z
			 M127.404,66.332h2.96v-6.514h2.007v-1.936h-2.007v-0.575c0-0.306,0.095-0.542,0.285-0.705c0.188-0.164,0.435-0.247,0.735-0.247
			c0.223,0,0.557,0.077,1.004,0.23l0.384-2.215c-0.635-0.229-1.282-0.345-1.939-0.345c-1.004,0-1.826,0.271-2.467,0.812
			c-0.642,0.542-0.962,1.283-0.962,2.223v0.822h-1.221v1.936h1.221V66.332z M203.322,46.903c-0.174,0.093-0.404,0.14-0.694,0.14
			c-0.502,0-1.034-0.096-1.597-0.287c-0.563-0.191-1.102-0.462-1.615-0.812l-0.936,1.887c0.547,0.416,1.17,0.73,1.873,0.943
			c0.702,0.213,1.438,0.32,2.207,0.32c1.138,0,2.061-0.254,2.768-0.763c0.709-0.508,1.062-1.211,1.062-2.108
			c0-0.591-0.156-1.069-0.469-1.436c-0.312-0.366-0.684-0.64-1.111-0.82c-0.43-0.18-0.967-0.364-1.614-0.55
			c-0.535-0.142-0.926-0.273-1.171-0.394c-0.245-0.12-0.367-0.279-0.367-0.476c0-0.186,0.077-0.325,0.233-0.418
			c0.156-0.093,0.362-0.139,0.619-0.139c0.747,0,1.706,0.301,2.876,0.902l1.004-1.903c-0.568-0.339-1.174-0.596-1.814-0.771
			c-0.643-0.175-1.291-0.262-1.948-0.262c-1.093,0-1.985,0.254-2.677,0.763s-1.036,1.211-1.036,2.109c0,0.58,0.153,1.05,0.46,1.411
			c0.307,0.361,0.666,0.632,1.078,0.812c0.412,0.181,0.938,0.364,1.572,0.55c0.535,0.142,0.928,0.273,1.18,0.394
			c0.25,0.121,0.376,0.29,0.376,0.509C203.581,46.677,203.494,46.811,203.322,46.903z M191.055,44.27
			c0.057-0.503,0.242-0.908,0.561-1.214c0.318-0.306,0.721-0.465,1.213-0.476c0.469,0,0.842,0.145,1.12,0.435
			c0.278,0.29,0.418,0.687,0.418,1.189v4.759h2.96v-5.596c0-1.039-0.298-1.864-0.895-2.478c-0.597-0.612-1.391-0.919-2.383-0.919
			c-0.658,0-1.24,0.131-1.748,0.394c-0.507,0.262-0.922,0.651-1.246,1.165v-1.444h-2.977v8.877h2.977V44.27z M180.201,42.957
			c0.357-0.404,0.826-0.607,1.404-0.607c0.58,0,1.052,0.203,1.414,0.607c0.362,0.405,0.543,0.936,0.543,1.592
			c0,0.667-0.178,1.204-0.534,1.608c-0.358,0.405-0.831,0.607-1.423,0.607c-0.578,0-1.047-0.202-1.404-0.607
			c-0.357-0.404-0.535-0.94-0.535-1.608C179.666,43.893,179.844,43.362,180.201,42.957z M179.014,48.496
			c0.748,0.377,1.611,0.565,2.592,0.565c0.981,0,1.846-0.188,2.593-0.565c0.747-0.378,1.327-0.909,1.739-1.592
			c0.413-0.684,0.619-1.479,0.619-2.387c0-0.897-0.206-1.688-0.619-2.371c-0.412-0.684-0.992-1.214-1.739-1.592
			c-0.747-0.377-1.611-0.566-2.593-0.566c-0.98,0-1.844,0.188-2.592,0.566c-0.747,0.378-1.324,0.908-1.73,1.592
			c-0.407,0.683-0.61,1.474-0.61,2.371c0,0.908,0.203,1.704,0.61,2.387C177.689,47.587,178.267,48.118,179.014,48.496z
			 M173.629,39.118c0.457,0,0.834-0.148,1.129-0.443c0.295-0.295,0.443-0.667,0.443-1.116c0-0.459-0.148-0.834-0.443-1.124
			c-0.295-0.29-0.672-0.435-1.129-0.435s-0.834,0.145-1.129,0.435c-0.295,0.29-0.443,0.665-0.443,1.124
			c0,0.449,0.148,0.821,0.443,1.116C172.795,38.97,173.172,39.118,173.629,39.118z M172.174,48.963h2.959v-8.877h-2.959V48.963z
			 M166.111,48.339c0.553,0.503,1.273,0.755,2.166,0.755c0.445,0,0.887-0.052,1.32-0.156c0.436-0.104,0.82-0.249,1.154-0.435
			l-0.568-2.067c-0.445,0.197-0.83,0.295-1.154,0.295c-0.523,0-0.785-0.312-0.785-0.936v-3.347h2.341v-1.937h-2.341v-2.461h-2.961
			v2.461h-1.254v1.937h1.254v3.807C165.283,47.142,165.56,47.836,166.111,48.339z M156.721,49.094
			c1.315-0.022,2.28-0.547,2.894-1.576v1.444h2.977v-8.877h-2.977v4.381c0,0.591-0.15,1.069-0.452,1.436
			c-0.3,0.367-0.713,0.556-1.237,0.566c-0.446,0-0.8-0.143-1.062-0.427s-0.393-0.678-0.393-1.181v-4.775h-2.978v5.611
			c0,1.029,0.292,1.852,0.878,2.47C154.956,48.785,155.74,49.094,156.721,49.094z M148.426,48.963h2.978V36.788h-2.978V48.963z
			 M140.467,42.957c0.355-0.404,0.824-0.607,1.404-0.607s1.051,0.203,1.414,0.607c0.361,0.405,0.542,0.936,0.542,1.592
			c0,0.667-0.178,1.204-0.534,1.608c-0.357,0.405-0.831,0.607-1.422,0.607c-0.58,0-1.049-0.202-1.404-0.607
			c-0.357-0.404-0.535-0.94-0.535-1.608C139.932,43.893,140.109,43.362,140.467,42.957z M139.279,48.496
			c0.746,0.377,1.61,0.565,2.592,0.565c0.98,0,1.846-0.188,2.592-0.565c0.747-0.378,1.327-0.909,1.74-1.592
			c0.412-0.684,0.618-1.479,0.618-2.387c0-0.897-0.206-1.688-0.618-2.371c-0.413-0.684-0.993-1.214-1.74-1.592
			c-0.746-0.377-1.611-0.566-2.592-0.566c-0.981,0-1.846,0.188-2.592,0.566c-0.748,0.378-1.324,0.908-1.73,1.592
			c-0.408,0.683-0.611,1.474-0.611,2.371c0,0.908,0.203,1.704,0.611,2.387C137.955,47.587,138.531,48.118,139.279,48.496z
			 M132.514,46.436c-0.262,0.164-0.622,0.246-1.078,0.246c-0.625,0-1.342-0.164-2.149-0.492c-0.809-0.329-1.509-0.749-2.099-1.264
			L126,47.272c0.701,0.581,1.535,1.037,2.5,1.37c0.964,0.334,1.932,0.5,2.901,0.5c0.881,0,1.681-0.137,2.399-0.41
			c0.719-0.273,1.285-0.681,1.697-1.223c0.414-0.542,0.619-1.194,0.619-1.96s-0.189-1.386-0.568-1.862s-0.834-0.829-1.363-1.059
			c-0.529-0.229-1.201-0.459-2.016-0.689c-0.546-0.164-0.958-0.298-1.236-0.402c-0.279-0.104-0.514-0.241-0.703-0.411
			c-0.189-0.169-0.284-0.38-0.284-0.631c0-0.263,0.108-0.462,0.325-0.599c0.219-0.137,0.518-0.206,0.896-0.206
			c0.479,0,1.072,0.115,1.781,0.345c0.707,0.229,1.373,0.525,1.998,0.886l1.153-2.396c-0.624-0.394-1.349-0.708-2.173-0.944
			c-0.826-0.235-1.662-0.353-2.51-0.353c-0.937,0-1.759,0.145-2.467,0.435c-0.707,0.29-1.254,0.703-1.639,1.239
			c-0.385,0.536-0.576,1.16-0.576,1.871c0,0.755,0.186,1.359,0.56,1.813c0.373,0.454,0.821,0.793,1.346,1.017
			c0.524,0.225,1.188,0.446,1.99,0.665c0.536,0.142,0.95,0.265,1.247,0.369c0.295,0.104,0.54,0.244,0.735,0.419
			s0.292,0.394,0.292,0.656C132.906,46.031,132.775,46.272,132.514,46.436z"/>
	</g>
</g>
</svg>
